<?xml version="1.0" encoding="utf-8"?>
<!-- Uploaded to: SVG Repo, www.svgrepo.com, Generator: SVG Repo Mixer Tools -->
<svg fill="#000000" version="1.1" id="Layer_1" xmlns="http://www.w3.org/2000/svg" xmlns:xlink="http://www.w3.org/1999/xlink" 
	 width="800px" height="800px" viewBox="0 0 256 209" enable-background="new 0 0 256 209" xml:space="preserve">
<path d="M52.658,31.152c0-15.75,12.6-28.452,28.451-28.452c15.75,0,28.451,12.701,28.451,28.452
	c-0.101,15.852-12.803,28.451-28.451,28.451C65.359,59.603,52.658,46.902,52.658,31.152z M209.595,153.179h-51.624v-46.132
	c0-22.474-19.64-40.64-41.739-40.64H47.034C22.772,66.407,1.989,87.429,2,108.145v84.576c-0.028,9.373,6.591,14.267,13.18,14.279
	c6.606,0.012,13.181-4.883,13.181-14.279v-82.379h8.787v96.56h85.674v-96.56h8.787l0.089,55.325
	c-0.059,9.587,5.868,13.671,11.993,13.873h65.903C227.568,179.54,227.568,153.179,209.595,153.179z M243.637,78.922h-10.363V68.874
	c3.005-2.155,4.97-5.678,4.97-9.651c0-5.393-3.618-9.996-8.606-11.417c-1.377-7.069-7.664-12.466-15.04-12.466
	c-2.15,0-4.249,0.445-6.179,1.295c-3.571-3.843-8.61-6.075-13.934-6.075c-8.55,0-16.003,5.782-18.291,13.809
	c-6.736,0.691-12.008,6.399-12.008,13.317c0,5.03,2.794,9.422,6.909,11.71v64.796c0,3.817,3.092,6.909,6.909,6.909h48.362
	c3.817,0,6.909-3.092,6.909-6.909v-6.909h1.727c10.475,0,18.999-8.524,18.999-18.999V89.285
	C254,83.573,249.35,78.922,243.637,78.922z M188.366,120.375h-6.909V85.831h6.909V120.375z M205.638,120.375h-6.909V85.831h6.909
	V120.375z M222.91,120.375h-6.909V85.831h6.909V120.375z M226.365,65.104h-27.635v6.909c0,3.817-3.092,6.909-6.909,6.909
	c-3.817,0-6.909-3.092-6.909-6.909v-6.909h-7.341c-4.046,0-7.341-3.372-7.341-7.418s3.295-7.341,7.341-7.341h3.705l0.367-2.604
	c0.894-6.347,6.412-11.136,12.842-11.136c4.266,0,8.26,2.099,10.687,5.618l1.71,2.487l2.487-1.71
	c1.537-1.058,3.346-1.615,5.229-1.615c4.979,0,9.137,4.076,9.271,9.085l0.073,2.776l2.776,0.16c3.07,0.177,5.48,2.733,5.48,5.816
	C232.198,62.436,229.577,65.104,226.365,65.104z M247.091,108.285c0,6.667-5.423,12.09-12.09,12.09h-1.727V85.831h10.363
	c1.904,0,3.454,1.55,3.454,3.454V108.285z"/>
</svg>