<?xml version="1.0" encoding="utf-8"?>
<!-- Uploaded to: SVG Repo, www.svgrepo.com, Generator: SVG Repo Mixer Tools -->
<svg fill="#000000" height="800px" width="800px" version="1.1" id="Layer_1" xmlns="http://www.w3.org/2000/svg" xmlns:xlink="http://www.w3.org/1999/xlink" 
	 viewBox="0 0 128 128" xml:space="preserve">
<path d="M109.4,37.2c7.4,1.8,12.9,8.5,12.9,16.4v61c0,1.9-1.5,3.4-3.4,3.4H85.8c-1.9,0-3.4-1.5-3.4-3.4v-61c0-8,5.5-14.7,13-16.4
	l0-27.3h14.1V37.2z"/>
<path d="M60.4,113.9l-19.6-3.8V72.9l29.1-29.8H5.2l29.1,29.8v37.2l-19.6,3.8c0,0-2.4,0.4-2.4,3.8h50.5
	C62.8,114.3,60.4,113.9,60.4,113.9"/>
</svg>